<svg xmlns="http://www.w3.org/2000/svg" xmlns:xlink="http://www.w3.org/1999/xlink" width="100" height="100" viewBox="0 0 375 374.999991" preserveAspectRatio="xMidYMid meet" version="1.0" fill="none">
  <defs>
    <clipPath id="d057996a04">
      <path d="M 120.65625 112.5 L 254.15625 112.5 L 254.15625 262.5 L 120.65625 262.5 Z M 120.65625 112.5 " clip-rule="nonzero"/>
    </clipPath>
  </defs>
  <g clip-path="url(#d057996a04)">
    <rect width="100%" height="100%" fill="none"/>
    <path fill="#5271ff" fill-opacity="0.5" d="M 195.53125 262.375 C 154.246094 262.375 120.65625 228.785156 120.65625 187.5 C 120.65625 146.214844 154.246094 112.625 195.53125 112.625 C 216.339844 112.625 236.382812 121.394531 250.515625 136.675781 L 254.34375 140.820312 L 225.351562 167.628906 L 221.519531 163.488281 C 214.738281 156.15625 205.507812 152.117188 195.53125 152.117188 C 176.019531 152.117188 160.148438 167.992188 160.148438 187.5 C 160.148438 198.050781 164.832031 207.984375 172.992188 214.75 L 165.792969 223.4375 C 155.035156 214.519531 148.863281 201.421875 148.863281 187.5 C 148.863281 161.769531 169.800781 140.835938 195.53125 140.835938 C 206.789062 140.835938 217.324219 144.730469 225.730469 151.910156 L 238.214844 140.367188 C 226.582031 129.847656 211.316406 123.910156 195.53125 123.910156 C 160.46875 123.910156 131.941406 152.433594 131.941406 187.5 C 131.941406 222.5625 160.46875 251.089844 195.53125 251.089844 C 208.917969 251.089844 221.730469 246.972656 232.578125 239.1875 C 235.484375 237.101562 238.238281 234.746094 240.769531 232.183594 L 248.796875 240.113281 C 245.824219 243.125 242.578125 245.898438 239.15625 248.355469 C 226.382812 257.523438 211.296875 262.375 195.53125 262.375 " fill-opacity="1" fill-rule="nonzero"/>
  </g>
</svg>
